PathFileType	4	(X/Y/Z)	s07c0303.trc
DataRate	CameraRate	NumFrames	NumMarkers	Units	OrigDataRate	OrigDataStartFrame	OrigNumFrames
200	200	5	48	mm	200	1250	2000
Frame#	Time	racr			lacr			c7			jug			rlel			rdr			llel			ldr			s2			lic			ric			lasi			rasi			rpsi			lpsi			rgt			lgt			rth1			rth2			rth3			rth4			rlfc			rmfc			rsh1			rsh2			rsh3			rsh4			rlmal			rcal			rtoe			rmt5			lth1			lth2			lth4			lth3			llfc			lmfc			lsh1			lsh2			lsh3			lsh4			llmal			lcal			ltoe			lmt5			SBIKE			LBIKE			RBIKE			
		X1	Y1	Z1	X2	Y2	Z2	X3	Y3	Z3	X4	Y4	Z4	X5	Y5	Z5	X6	Y6	Z6	X7	Y7	Z7	X8	Y8	Z8	X9	Y9	Z9	X10	Y10	Z10	X11	Y11	Z11	X12	Y12	Z12	X13	Y13	Z13	X14	Y14	Z14	X15	Y15	Z15	X16	Y16	Z16	X17	Y17	Z17	X18	Y18	Z18	X19	Y19	Z19	X20	Y20	Z20	X21	Y21	Z21	X22	Y22	Z22	X23	Y23	Z23	X24	Y24	Z24	X25	Y25	Z25	X26	Y26	Z26	X27	Y27	Z27	X28	Y28	Z28	X29	Y29	Z29	X30	Y30	Z30	X31	Y31	Z31	X32	Y32	Z32	X33	Y33	Z33	X34	Y34	Z34	X35	Y35	Z35	X36	Y36	Z36	X37	Y37	Z37	X38	Y38	Z38	X39	Y39	Z39	X40	Y40	Z40	X41	Y41	Z41	X42	Y42	Z42	X43	Y43	Z43	X44	Y44	Z44	X45	Y45	Z45	X46	Y46	Z46	X47	Y47	Z47	X48	Y48	Z48	
1250	6.2500	816.086361	1359.966865	-75.611326	815.173875	1428.645789	-385.410457	815.490605	1450.790352	-220.984294	743.634736	1317.003274	-258.660308	555.919472	1116.716380	26.207045	725.522163	914.421001	-74.531650	627.348911	1158.309572	-528.820280	727.448148	904.187544	-421.128374	214.735171	1289.742596	-310.113336	390.866038	1320.334927	-430.172563	375.486249	1269.289034	-146.241888	399.995443	1235.347699	-411.362295	381.524778	1225.172405	-160.794295	245.081125	1318.405514	-252.782675	265.193464	1333.449983	-357.899968	282.553161	1165.659390	-117.580970	315.316897	1168.812759	-477.705762	340.235401	1010.243602	-104.173426	377.069211	930.527193	-110.801566	372.219213	845.051930	-109.810164	410.624532	938.169376	-123.817834	395.453990	713.573032	-134.193255	380.326312	695.500925	-229.921474	330.836305	587.484498	-96.838942	315.719994	499.936525	-110.139886	264.611766	431.068126	-99.522276	330.247509	495.329489	-147.628466	202.135050	305.629828	-88.300045	129.796031	275.798236	-112.176109	412.890522	202.760104	-125.823410	331.063258	185.056484	-55.265218	370.933568	1053.885189	-469.636218	434.557050	995.596952	-453.013795	461.608401	1014.696134	-438.639784	461.378756	911.280918	-442.282125	510.292548	745.350770	-398.860392	485.153305	739.751831	-300.048348	372.616158	684.206128	-412.596190	301.738378	636.394410	-398.371768	212.215667	624.682433	-406.363072	304.849898	637.814284	-356.516363	84.043857	583.413753	-408.138526	13.174223	614.562235	-370.770156	163.152460	368.024659	-356.848565	98.427837	418.137449	-421.151568	-260.030853	962.317049	-236.153704	-82.457313	79.350455	-436.053599	-82.534298	79.084226	-38.540016	
1251	6.2550	817.936165	1363.323287	-79.275225	813.678811	1430.651379	-390.101284	815.161061	1454.126406	-224.918543	744.675837	1319.412668	-261.879642	559.483428	1119.456779	26.693766	725.846502	914.629245	-74.353113	625.794504	1157.478754	-528.833428	727.471502	904.145054	-421.067460	214.586868	1286.179834	-305.971129	388.776931	1319.753135	-428.391755	378.373265	1266.044420	-145.052786	399.129721	1234.849355	-410.143042	383.743331	1220.930156	-159.464534	245.734655	1314.772188	-248.567050	263.897059	1331.326903	-354.761364	284.740453	1160.790723	-116.036171	314.857674	1167.900623	-476.879669	338.142938	1004.345127	-103.546372	372.777905	923.684170	-110.795970	365.670659	838.296480	-110.418169	406.421888	930.438624	-124.001218	385.681459	707.581807	-135.567720	365.600707	690.410167	-232.061418	322.628789	581.084252	-97.009840	307.924873	493.505349	-110.612294	257.129202	424.279163	-99.246286	321.815421	488.823007	-148.010104	195.134574	298.808467	-87.682631	122.850701	269.540951	-111.222702	405.234083	194.241332	-126.077427	323.610735	177.215921	-55.327314	373.742876	1054.956456	-468.030384	438.966638	998.351542	-452.820850	465.654018	1018.181566	-438.798633	468.143140	914.661244	-442.521708	520.579398	749.554536	-399.766466	495.930022	743.740589	-300.760818	380.115185	688.308230	-411.248837	311.615843	641.661559	-398.347222	221.945785	630.546424	-406.173580	314.892161	642.966011	-356.671647	93.838419	590.452590	-408.012891	23.236972	622.637146	-370.743333	170.622512	374.294843	-356.856612	106.191251	424.939948	-420.680632	-260.021946	962.287025	-236.227413	-82.476686	79.314209	-436.061972	-82.534751	79.077621	-38.561455	
1252	6.2600	821.134603	1366.512167	-85.468836	812.439440	1432.838057	-395.243983	814.772696	1457.661998	-229.179224	747.674134	1321.362097	-266.633148	563.205306	1122.527326	27.026777	726.042817	914.675422	-73.848591	624.137129	1157.190288	-529.181176	727.489867	904.110280	-420.997783	214.502502	1282.574143	-301.886795	386.622343	1319.188002	-426.493850	381.196480	1263.029803	-143.812595	398.378869	1234.422810	-408.847405	385.958482	1216.625842	-158.053664	246.250168	1311.306812	-244.600709	262.261032	1328.455596	-350.651338	286.757491	1156.174598	-114.382256	314.516544	1166.977380	-475.323601	336.069443	998.963594	-102.717850	368.434806	917.428288	-110.470422	359.280051	832.113012	-110.498156	402.222173	923.446272	-124.042595	376.407002	702.000997	-135.802730	354.449795	685.039549	-232.019344	313.929529	575.180323	-96.811797	299.536342	487.694265	-110.490467	249.294969	418.095764	-98.771896	313.140445	483.098693	-148.082138	187.800583	292.444220	-87.121755	115.584001	264.065382	-110.268502	397.229171	186.131686	-126.540894	315.682502	169.747424	-55.515071	376.445608	1056.079469	-467.068942	443.335941	1001.108882	-453.221241	469.810515	1021.546682	-440.022890	474.627208	918.166307	-443.165286	531.314036	754.137271	-400.901261	507.453284	748.200219	-301.530373	390.917477	693.376547	-411.568608	322.252442	647.029442	-398.759215	232.592738	636.302936	-405.625019	326.687715	647.210914	-357.862294	104.541039	596.949028	-407.934747	34.466143	630.114064	-370.633065	178.543139	379.985300	-356.977530	114.899447	431.490229	-420.641615	-260.110799	962.390076	-235.934302	-82.481760	79.274871	-436.075147	-82.546642	79.041807	-38.581678	
1253	6.2650	822.614758	1370.712781	-89.582782	810.551782	1435.045001	-400.312122	814.285207	1461.355872	-233.654467	748.033649	1324.338933	-269.994856	567.000692	1125.708806	27.208451	726.687235	914.757718	-73.840314	622.445144	1156.729688	-529.344917	727.512545	904.087303	-420.914037	214.524263	1278.881733	-297.683718	384.487266	1318.747288	-424.753695	383.946789	1260.198052	-142.472961	397.750369	1234.000925	-407.524773	388.337090	1212.642107	-156.479603	246.751924	1307.941525	-240.449743	260.830075	1325.639742	-346.661655	288.658381	1151.820757	-112.819448	314.226946	1166.273694	-473.611609	334.021468	994.254526	-101.637761	364.152601	911.860808	-109.837051	352.742103	826.818729	-110.068497	397.929174	917.084585	-123.794449	367.140823	696.870283	-135.651880	343.342749	680.182847	-231.494956	305.019175	569.972652	-96.307649	290.904534	482.470933	-110.017736	241.111842	412.488161	-98.088288	304.286712	478.176894	-147.721916	180.361662	286.691466	-86.667894	108.024473	259.319354	-109.510422	388.856438	178.457686	-126.519626	306.854103	162.639300	-55.941866	378.965157	1057.112828	-466.694409	447.566495	1003.873112	-454.271790	473.823338	1025.033164	-442.048377	480.913653	921.684150	-444.183751	542.383324	759.452226	-402.421416	519.390950	753.188648	-302.758646	402.287260	698.627280	-412.211787	333.230902	652.711877	-399.439473	243.886757	641.805873	-405.927364	338.182097	652.377530	-358.457036	116.355638	603.210831	-408.959044	46.435699	637.079302	-370.568379	186.816642	384.810833	-357.119670	124.230572	437.644870	-420.980968	-260.107100	962.327619	-236.084558	-82.503482	79.268282	-436.089605	-82.553475	79.063147	-38.589388	
1254	6.2700	823.958777	1375.162103	-93.901878	808.390589	1437.083436	-405.546442	813.687629	1465.214828	-238.459375	748.044580	1327.568456	-273.517218	570.830441	1128.967714	27.319418	727.766127	914.718283	-74.657429	620.629951	1156.160517	-529.377664	727.547750	904.080660	-420.814105	214.707531	1275.207899	-293.602222	382.410392	1318.362600	-422.915109	386.677604	1257.720174	-140.973414	397.195337	1233.606046	-406.112758	390.768697	1209.074571	-154.924157	247.501409	1304.691806	-236.512304	259.821622	1322.858312	-342.919450	290.603350	1147.812662	-111.178129	313.943614	1165.705805	-471.906276	332.060868	990.343310	-100.464846	360.070473	907.185700	-108.902983	346.528212	822.598621	-108.932017	393.738168	911.669684	-123.297992	357.887522	692.367430	-134.809189	332.525255	675.711820	-230.494794	295.912315	565.556510	-95.244256	282.144177	477.997140	-109.075299	232.704880	407.855887	-97.158533	295.466079	473.753346	-146.840049	172.517813	281.780735	-86.166401	100.218733	255.380641	-108.974612	380.186625	171.477481	-126.406320	298.339344	156.592762	-55.598391	381.099621	1057.974800	-466.864191	451.563550	1006.519471	-455.762737	477.483319	1028.286063	-443.968880	487.316366	925.387382	-446.071657	553.764983	765.255460	-404.281962	531.458928	758.319565	-304.070225	414.022037	703.873142	-412.965083	345.082088	657.758794	-400.134155	255.643335	647.129546	-406.341380	350.116350	657.391486	-359.281843	128.637362	608.199308	-409.211393	59.587041	643.577881	-370.545404	195.354139	388.855895	-357.210617	133.903095	442.901285	-421.017463	-260.080640	962.314569	-236.231858	-82.482008	79.255061	-436.086394	-82.539827	79.022858	-38.604643	
